<svg width="202" height="21" viewBox="0 0 202 21" fill="none" xmlns="http://www.w3.org/2000/svg">
<path d="M8.432 8.032C8.432 8.992 8.11733 9.76533 7.488 10.352C6.85867 10.9387 5.91467 11.232 4.656 11.232H2.4V16H1.28V4.816H4.656C5.904 4.816 6.84267 5.10933 7.472 5.696C8.112 6.28267 8.432 7.06133 8.432 8.032ZM4.656 10.272C6.40533 10.272 7.28 9.52533 7.28 8.032C7.28 7.28533 7.072 6.72 6.656 6.336C6.24 5.952 5.57333 5.76 4.656 5.76H2.4V10.272H4.656ZM13.1353 16.128C12.3139 16.128 11.5726 15.9467 10.9113 15.584C10.2606 15.2107 9.74325 14.688 9.35925 14.016C8.98592 13.3333 8.79925 12.5387 8.79925 11.632C8.79925 10.7253 8.99125 9.936 9.37525 9.264C9.75925 8.58133 10.2819 8.05867 10.9433 7.696C11.6046 7.32267 12.3459 7.136 13.1673 7.136C13.9886 7.136 14.7299 7.32267 15.3913 7.696C16.0633 8.05867 16.5859 8.58133 16.9593 9.264C17.3433 9.936 17.5353 10.7253 17.5353 11.632C17.5353 12.528 17.3433 13.3173 16.9593 14C16.5753 14.6827 16.0473 15.2107 15.3753 15.584C14.7033 15.9467 13.9566 16.128 13.1353 16.128ZM13.1353 15.152C13.7113 15.152 14.2446 15.024 14.7353 14.768C15.2259 14.5013 15.6206 14.1067 15.9193 13.584C16.2286 13.0507 16.3833 12.4 16.3833 11.632C16.3833 10.864 16.2339 10.2187 15.9353 9.696C15.6366 9.16267 15.2419 8.768 14.7513 8.512C14.2606 8.24533 13.7273 8.112 13.1513 8.112C12.5753 8.112 12.0419 8.24533 11.5513 8.512C11.0606 8.768 10.6659 9.16267 10.3673 9.696C10.0793 10.2187 9.93525 10.864 9.93525 11.632C9.93525 12.4 10.0793 13.0507 10.3673 13.584C10.6659 14.1067 11.0553 14.5013 11.5353 14.768C12.0259 15.024 12.5593 15.152 13.1353 15.152ZM30.0969 7.264L27.3609 16H26.2409L23.8249 8.672L21.4089 16H20.2729L17.5369 7.264H18.6729L20.8489 14.864L23.2969 7.264H24.4169L26.8329 14.88L28.9929 7.264H30.0969ZM38.5278 11.184C38.5278 11.568 38.5171 11.8613 38.4958 12.064H31.2478C31.2798 12.7253 31.4398 13.2907 31.7278 13.76C32.0158 14.2293 32.3944 14.5867 32.8638 14.832C33.3331 15.0667 33.8451 15.184 34.3998 15.184C35.1251 15.184 35.7331 15.008 36.2238 14.656C36.7251 14.304 37.0558 13.8293 37.2158 13.232H38.3998C38.1864 14.0853 37.7278 14.784 37.0238 15.328C36.3304 15.8613 35.4558 16.128 34.3998 16.128C33.5784 16.128 32.8424 15.9467 32.1918 15.584C31.5411 15.2107 31.0291 14.688 30.6558 14.016C30.2931 13.3333 30.1118 12.5387 30.1118 11.632C30.1118 10.7253 30.2931 9.93067 30.6558 9.248C31.0184 8.56533 31.5251 8.04267 32.1758 7.68C32.8264 7.31733 33.5678 7.136 34.3998 7.136C35.2318 7.136 35.9571 7.31733 36.5758 7.68C37.2051 8.04267 37.6851 8.53333 38.0158 9.152C38.3571 9.76 38.5278 10.4373 38.5278 11.184ZM37.3918 11.152C37.4024 10.5013 37.2691 9.94667 36.9918 9.488C36.7251 9.02933 36.3571 8.68267 35.8878 8.448C35.4184 8.21333 34.9064 8.096 34.3518 8.096C33.5198 8.096 32.8104 8.36267 32.2238 8.896C31.6371 9.42933 31.3118 10.1813 31.2478 11.152H37.3918ZM40.6969 8.816C40.9422 8.272 41.3155 7.85067 41.8169 7.552C42.3289 7.25333 42.9529 7.104 43.6889 7.104V8.272H43.3849C42.5742 8.272 41.9235 8.49067 41.4329 8.928C40.9422 9.36533 40.6969 10.096 40.6969 11.12V16H39.5769V7.264H40.6969V8.816ZM52.2778 11.184C52.2778 11.568 52.2671 11.8613 52.2458 12.064H44.9978C45.0298 12.7253 45.1898 13.2907 45.4778 13.76C45.7658 14.2293 46.1444 14.5867 46.6138 14.832C47.0831 15.0667 47.5951 15.184 48.1498 15.184C48.8751 15.184 49.4831 15.008 49.9738 14.656C50.4751 14.304 50.8058 13.8293 50.9658 13.232H52.1498C51.9364 14.0853 51.4778 14.784 50.7738 15.328C50.0804 15.8613 49.2058 16.128 48.1498 16.128C47.3284 16.128 46.5924 15.9467 45.9418 15.584C45.2911 15.2107 44.7791 14.688 44.4058 14.016C44.0431 13.3333 43.8618 12.5387 43.8618 11.632C43.8618 10.7253 44.0431 9.93067 44.4058 9.248C44.7684 8.56533 45.2751 8.04267 45.9258 7.68C46.5764 7.31733 47.3178 7.136 48.1498 7.136C48.9818 7.136 49.7071 7.31733 50.3258 7.68C50.9551 8.04267 51.4351 8.53333 51.7658 9.152C52.1071 9.76 52.2778 10.4373 52.2778 11.184ZM51.1418 11.152C51.1524 10.5013 51.0191 9.94667 50.7418 9.488C50.4751 9.02933 50.1071 8.68267 49.6378 8.448C49.1684 8.21333 48.6564 8.096 48.1018 8.096C47.2698 8.096 46.5604 8.36267 45.9738 8.896C45.3871 9.42933 45.0618 10.1813 44.9978 11.152H51.1418ZM52.8149 11.616C52.8149 10.72 52.9962 9.936 53.3589 9.264C53.7215 8.58133 54.2175 8.05867 54.8469 7.696C55.4869 7.32267 56.2069 7.136 57.0069 7.136C57.7749 7.136 58.4682 7.32267 59.0869 7.696C59.7055 8.06933 60.1589 8.55467 60.4469 9.152V4.16H61.5669V16H60.4469V14.048C60.1802 14.656 59.7429 15.1573 59.1349 15.552C58.5269 15.936 57.8122 16.128 56.9909 16.128C56.1909 16.128 55.4709 15.9413 54.8309 15.568C54.2015 15.1947 53.7055 14.6667 53.3429 13.984C52.9909 13.3013 52.8149 12.512 52.8149 11.616ZM60.4469 11.632C60.4469 10.928 60.3029 10.3093 60.0149 9.776C59.7269 9.24267 59.3322 8.832 58.8309 8.544C58.3402 8.256 57.7962 8.112 57.1989 8.112C56.5802 8.112 56.0255 8.25067 55.5349 8.528C55.0442 8.80533 54.6549 9.21067 54.3669 9.744C54.0895 10.2667 53.9509 10.8907 53.9509 11.616C53.9509 12.3307 54.0895 12.96 54.3669 13.504C54.6549 14.0373 55.0442 14.448 55.5349 14.736C56.0255 15.0133 56.5802 15.152 57.1989 15.152C57.7962 15.152 58.3402 15.008 58.8309 14.72C59.3322 14.432 59.7269 14.0213 60.0149 13.488C60.3029 12.9547 60.4469 12.336 60.4469 11.632ZM67.6184 9.2C67.9064 8.592 68.349 8.096 68.9464 7.712C69.5544 7.328 70.269 7.136 71.0904 7.136C71.8904 7.136 72.605 7.32267 73.2344 7.696C73.8637 8.05867 74.3544 8.58133 74.7064 9.264C75.069 9.936 75.2504 10.72 75.2504 11.616C75.2504 12.512 75.069 13.3013 74.7064 13.984C74.3544 14.6667 73.8584 15.1947 73.2184 15.568C72.589 15.9413 71.8797 16.128 71.0904 16.128C70.2584 16.128 69.5384 15.9413 68.9304 15.568C68.333 15.184 67.8957 14.688 67.6184 14.08V16H66.5144V4.16H67.6184V9.2ZM74.1144 11.616C74.1144 10.8907 73.9704 10.2667 73.6824 9.744C73.405 9.21067 73.021 8.80533 72.5304 8.528C72.0397 8.25067 71.485 8.112 70.8664 8.112C70.269 8.112 69.7197 8.256 69.2184 8.544C68.7277 8.832 68.3384 9.24267 68.0504 9.776C67.7624 10.3093 67.6184 10.928 67.6184 11.632C67.6184 12.336 67.7624 12.9547 68.0504 13.488C68.3384 14.0213 68.7277 14.432 69.2184 14.72C69.7197 15.008 70.269 15.152 70.8664 15.152C71.485 15.152 72.0397 15.0133 72.5304 14.736C73.021 14.448 73.405 14.0373 73.6824 13.504C73.9704 12.96 74.1144 12.3307 74.1144 11.616ZM83.5113 7.264L78.3273 20.112H77.1593L78.8553 15.952L75.2713 7.264H76.5033L79.4793 14.72L82.3593 7.264H83.5113Z" fill="#7D7D7D" fill-opacity="0.5"/>
<path fill-rule="evenodd" clip-rule="evenodd" d="M105.196 8.93096L99.732 12.2939V11.2529L105.196 7.88993V8.93096ZM105.196 13.9319L99.732 17.2949V16.2538L105.196 12.8909V13.9319ZM99.732 13.7535L103.688 11.2355V12.2765L99.732 14.7945V13.7535ZM106.137 4.94051L99.7472 1.29624C99.0546 0.901252 98.2012 0.901252 97.5088 1.29624L91.1192 4.94051C90.4266 5.33551 90 6.06548 90 6.85566V14.1444C90 14.9342 90.4266 15.6645 91.1192 16.0593L97.5088 19.7036C98.2012 20.0988 99.0546 20.0988 99.7472 19.7036L106.137 16.0593C106.829 15.6645 107.256 14.9342 107.256 14.1444V6.85566C107.256 6.06548 106.829 5.33551 106.137 4.94051Z" fill="#7D7D7D" fill-opacity="0.5"/>
<path fill-rule="evenodd" clip-rule="evenodd" d="M115.689 9.71075H120.18C120.069 9.02514 119.249 8.24172 117.983 8.24172C116.913 8.24172 115.995 8.74539 115.689 9.71075ZM120.32 11.3898L121.974 12.1032C121.488 13.3204 120 14.3277 118.067 14.3277C115.55 14.3277 113.742 12.7747 113.742 10.4944C113.742 8.32566 115.522 6.67468 118.053 6.67468C120.584 6.67468 122.099 8.32566 122.099 10.4243V11.04H115.619C115.856 12.1032 116.815 12.7328 118.067 12.7328C119.152 12.7328 119.986 12.2012 120.32 11.3898Z" fill="#7D7D7D" fill-opacity="0.5"/>
<path fill-rule="evenodd" clip-rule="evenodd" d="M128.676 10.8299L125.923 11.1378C125.061 11.2356 124.616 11.4455 124.616 11.9911C124.616 12.5508 125.158 12.8308 126.062 12.8308C127.258 12.8308 128.676 12.313 128.676 11.3336V10.8299ZM122.725 12.0471C122.725 10.69 123.879 9.93447 125.631 9.75253L128.676 9.4308V9.37478C128.676 8.75944 128.134 8.25558 126.854 8.25558C125.784 8.25558 124.908 8.73133 124.658 9.37478L122.975 8.80122C123.434 7.51413 125.047 6.67468 126.924 6.67468C129.219 6.67468 130.553 7.61213 130.553 9.40269V12.299C130.553 12.7048 130.734 12.8866 131.569 12.7048V14.1739C129.969 14.4956 129.177 13.9779 128.871 13.2643C128.203 13.8939 127.105 14.3277 125.798 14.3277C124.046 14.3277 122.725 13.5302 122.725 12.0471Z" fill="#7D7D7D" fill-opacity="0.5"/>
<path fill-rule="evenodd" clip-rule="evenodd" d="M136.212 8.24152C134.891 8.24152 133.779 9.02514 133.779 10.3542C133.779 11.6973 134.891 12.4809 136.212 12.4809C137.547 12.4809 138.688 11.6835 138.688 10.3821V10.3263C138.688 9.039 137.547 8.24152 136.212 8.24152ZM136.046 16.8181C134.085 16.8181 132.527 16.1187 131.929 14.8874L133.473 13.9359C133.848 14.7755 134.822 15.2792 136.018 15.2792C137.394 15.2792 138.59 14.6075 138.59 13.3204V13.0404C138.076 13.5722 137.186 14.0618 135.865 14.0618C133.362 14.0618 131.888 12.3829 131.888 10.3542C131.888 8.36763 133.362 6.67468 135.865 6.67468C137.2 6.67468 138.076 7.15024 138.59 7.66796V6.81446L140.537 6.81446V13.1384C140.537 15.4331 138.604 16.8181 136.046 16.8181Z" fill="#7D7D7D" fill-opacity="0.5"/>
<path fill-rule="evenodd" clip-rule="evenodd" d="M143.557 9.71075H148.049C147.937 9.02514 147.117 8.24172 145.852 8.24172C144.781 8.24172 143.863 8.74539 143.557 9.71075ZM148.188 11.3898L149.842 12.1032C149.356 13.3204 147.868 14.3277 145.935 14.3277C143.418 14.3277 141.61 12.7747 141.61 10.4944C141.61 8.32566 143.39 6.67468 145.921 6.67468C148.452 6.67468 149.968 8.32566 149.968 10.4243V11.04L143.488 11.04C143.724 12.1032 144.683 12.7328 145.935 12.7328C147.02 12.7328 147.854 12.2012 148.188 11.3898Z" fill="#7D7D7D" fill-opacity="0.5"/>
<path fill-rule="evenodd" clip-rule="evenodd" d="M156.544 8.80127C156.21 8.71713 156.057 8.68921 155.668 8.68921C154.055 8.68921 152.984 9.34691 152.984 11.0399V14.1739H151.037V6.81451H152.984V8.11565C153.61 7.15029 154.541 6.77234 155.737 6.77234C156.071 6.77234 156.335 6.81451 156.544 6.87034V8.80127Z" fill="#7D7D7D" fill-opacity="0.5"/>
<path fill-rule="evenodd" clip-rule="evenodd" d="M164.136 6.81396L165.888 11.7948L167.668 6.81396H169.671L166.792 14.1732H165.04L163.246 9.27628L161.452 14.1732H159.7L156.808 6.81396H158.88L160.701 11.7948L162.439 6.81396H164.136Z" fill="#7D7D7D" fill-opacity="0.5"/>
<path fill-rule="evenodd" clip-rule="evenodd" d="M176.234 10.4942C176.234 9.10889 175.163 8.31141 173.856 8.31141C172.521 8.31141 171.464 9.10889 171.464 10.4942C171.464 11.8933 172.521 12.6908 173.856 12.6908C175.163 12.6908 176.234 11.8933 176.234 10.4942ZM178.111 10.4942C178.111 12.8027 176.234 14.3277 173.856 14.3277C171.464 14.3277 169.573 12.8027 169.573 10.4942C169.573 8.19955 171.464 6.67468 173.856 6.67468C176.234 6.67468 178.111 8.19955 178.111 10.4942Z" fill="#7D7D7D" fill-opacity="0.5"/>
<path fill-rule="evenodd" clip-rule="evenodd" d="M184.701 8.80127C184.367 8.71713 184.214 8.68921 183.825 8.68921C182.212 8.68921 181.141 9.34691 181.141 11.0399V14.1739H179.194V6.81451H181.141V8.11565C181.767 7.15029 182.698 6.77234 183.894 6.77234C184.228 6.77234 184.492 6.81451 184.701 6.87034V8.80127Z" fill="#7D7D7D" fill-opacity="0.5"/>
<path fill-rule="evenodd" clip-rule="evenodd" d="M187.552 10.214L191.502 6.81424L194.185 6.81424L190.403 9.97603L194.297 14.1735H191.849L189.012 11.1514L187.552 12.3686V14.1735H185.605V4.12781H187.552V10.214Z" fill="#7D7D7D" fill-opacity="0.5"/>
<path fill-rule="evenodd" clip-rule="evenodd" d="M195.103 11.5017C195.923 12.3972 197.022 12.8028 198.287 12.8028C199.358 12.8028 200.067 12.5649 200.067 12.0192C200.067 11.4597 199.4 11.4597 197.717 11.2499C195.881 11.0119 194.421 10.6902 194.421 9.12314C194.421 7.66796 195.812 6.67468 198.037 6.67468C199.775 6.67468 201.138 7.27616 201.819 8.05977L200.707 9.24906C200.095 8.5775 199.121 8.18569 197.939 8.18569C196.855 8.18569 196.326 8.47969 196.326 8.91328C196.326 9.37478 196.841 9.431 198.426 9.62681C200.345 9.85072 202 10.1305 202 11.8232C202 13.5023 200.289 14.3279 198.204 14.3279C196.438 14.3279 194.825 13.7682 193.99 12.7888L195.103 11.5017Z" fill="#7D7D7D" fill-opacity="0.5"/>
</svg>
